<svg width="76" height="26" viewBox="0 0 76 26" fill="none" xmlns="http://www.w3.org/2000/svg">
<g clip-path="url(#clip0_4001_1768)">
<path d="M17.4516 0.00646973V4.69954C17.4516 4.92796 17.2683 5.11416 17.0416 5.11416H14.5568V0.0141476H13.1398V6.39251H17.5911C18.2631 6.39251 18.8078 5.84163 18.8078 5.16214V0.00646973H17.4516Z" fill="white"/>
<path d="M24.3009 6.39156V1.69848C24.3009 1.47006 24.1169 1.28387 23.8909 1.28387H21.4061V6.38388H19.9892V0.00646973H24.4415C25.1135 0.00646973 25.6572 0.557354 25.6572 1.23684V6.39251H24.3009V6.39156Z" fill="white"/>
<path d="M31.2719 0H26.9223V6.34765L28.3393 6.36205L31.2719 6.39277C31.9439 6.39277 32.4888 5.84188 32.4888 5.16238V1.23037C32.4888 0.550885 31.9439 0 31.2719 0ZM31.1325 4.6998C31.1325 4.92822 30.9483 5.1144 30.7225 5.1144H28.3393V1.27836H30.7225C30.9493 1.27836 31.1325 1.46359 31.1325 1.69297V4.6998Z" fill="white"/>
<path d="M41.7706 0.0482178H40.7968H40.6546V6.43522H40.9554H41.9301H42.0715V0.0482178H41.7706Z" fill="white"/>
<path d="M37.8373 0.109375H34.8029C34.1309 0.109375 33.5862 0.66026 33.5862 1.33879V6.49445H34.9424V4.36002H37.8373V6.48678H39.2542V0.109375H37.8373ZM37.6342 3.08262H34.9424V1.80233C34.9424 1.57296 35.1257 1.38678 35.3525 1.38678H37.8373V3.08167H37.6342V3.08262Z" fill="white"/>
<path d="M5.4232 0.03125H4.44847H4.3061V2.49968H4.04795H1.41702V0.03125H1.11615H0.142366H0V6.41825H0.300868H1.27465H1.41702V3.77803H1.52332H4.3061V6.41825H4.60697H5.58171H5.72313V0.03125H5.4232Z" fill="white"/>
<path d="M11.1004 0.0234375L10.1313 1.5283L9.43848 2.6032L8.74183 1.52158L7.77564 0.0234375H6.08432L8.71336 4.10325V6.4354H10.1313V4.15315L12.7917 0.0234375H11.1004Z" fill="white"/>
<path d="M36.4169 11.7799C33.505 11.7799 31.4881 12.7876 31.4881 16.3722V21.8418C31.4881 24.9551 33.7166 26.0003 36.4169 26.0003C39.2841 26.0003 41.1472 24.934 41.3465 21.8418V16.3722C41.3465 13.2214 39.7292 11.7799 36.4169 11.7799ZM37.3326 22.3725C37.2796 22.9953 37.1068 23.5221 36.3969 23.5221C35.6869 23.5221 35.5123 22.9953 35.4572 22.3725V15.7849C35.4572 15.066 35.5199 14.2349 36.3969 14.2349C37.2738 14.2349 37.3326 15.066 37.3326 15.7849V22.3725Z" fill="white"/>
<path d="M41.8768 11.9267V14.4575H43.2748V23.2237C43.2748 25.4187 44.4687 25.838 46.571 25.838C47.4281 25.838 47.991 25.838 49.0426 25.767V23.3447C48.6296 23.3447 48.5291 23.3465 48.0622 23.3465C47.5514 23.3465 47.2099 23.0423 47.2099 22.3513V14.4566H49.0426V11.9258H41.8768V11.9267Z" fill="white"/>
<path d="M73.2925 11.7565C71.7513 11.7565 70.8656 12.5569 70.469 13.723H70.4215C70.1131 12.6375 69.3339 11.7565 67.7669 11.7565C66.3205 11.7565 65.4179 12.5137 64.8407 13.7882H64.7924V11.9417H61.0519V25.8328H64.78V16.0042C64.8255 15.3075 65.0211 14.8698 65.7652 14.8698C66.4609 14.8698 66.6659 15.3977 66.6659 16.0042V25.8328H70.3854V16.0042C70.3854 15.3315 70.6787 14.8698 71.3289 14.8698C72.0312 14.8698 72.2287 15.4121 72.2287 16.0042V25.8328H75.9995V14.4245C75.9995 12.6673 74.8681 11.7574 73.2917 11.7574L73.2925 11.7565Z" fill="white"/>
<path d="M54.586 11.7553C51.7634 11.7649 49.6715 12.7304 49.6715 16.1759V21.964C49.6715 25.0274 52.0433 25.9709 54.586 25.9709C57.8159 25.9709 59.4986 24.8537 59.4986 22.3729V20.3517H55.537V21.8632C55.537 22.6752 55.4335 23.4707 54.6041 23.4707C53.822 23.4707 53.6815 22.6175 53.6815 21.8709V19.2979H59.5062V15.6307C59.5062 12.7391 57.2796 11.7438 54.586 11.7553ZM55.5398 17.0002H53.6758V16.0636C53.6758 15.1278 53.577 14.266 54.6107 14.266C55.557 14.266 55.5398 15.1864 55.5398 15.6624V16.9994V17.0002Z" fill="white"/>
<path d="M30.2754 13.4872C30.2754 10.2578 28.1901 9.58594 25.4557 9.58594H20.172V25.8313H24.1602V18.404H24.9356C25.8619 18.4692 26.235 19.0825 26.2919 20.1458C26.3061 20.3215 26.308 20.5278 26.3118 20.7428H26.307V25.8322H30.2592V20.7428C30.2562 20.1785 30.244 19.6795 30.2135 19.3368C30.1463 18.2062 29.3614 17.1697 27.1813 17.0948V17.0527C29.5246 16.639 30.2754 15.2186 30.2754 13.4853V13.4872ZM24.7524 16.0804H24.1593V11.8989C24.1593 11.8989 24.499 11.9047 24.667 11.9047C25.9397 11.9047 26.3298 12.5611 26.3298 14.0669C26.3298 15.1802 25.9036 16.0804 24.7524 16.0804Z" fill="white"/>
<path d="M51.1838 3.38281L43.2768 7.34266V11.2574L51.1838 7.29946V3.38281Z" fill="#FF0000"/>
</g>
<defs>
<clipPath id="clip0_4001_1768">
<rect width="76" height="26" fill="white"/>
</clipPath>
</defs>
</svg>
