<svg width="26" height="26" viewBox="0 0 26 26" fill="none" xmlns="http://www.w3.org/2000/svg">
<path d="M9.75 4.875C9.75 7.56739 7.56739 9.75 4.875 9.75C2.18261 9.75 0 7.56739 0 4.875C0 2.18261 2.18261 0 4.875 0C7.56739 0 9.75 2.18261 9.75 4.875Z" fill="#333333"/>
<path d="M14.625 9.75C11.9326 9.75 9.75 7.56739 9.75 4.875C9.75 2.18261 11.9326 0 14.625 0C17.3174 0 19.5 2.18261 19.5 4.875C19.5 7.56739 17.3174 9.75 14.625 9.75Z" fill="#333333"/>
<path d="M14.625 9.75H15.4375C17.0882 9.75 18.4515 10.9807 18.6599 12.5745L23.715 10.3278C24.7896 9.8502 26 10.6368 26 11.8127V23.9373C26 25.1132 24.7896 25.8998 23.715 25.4222L18.6599 23.1755C18.4515 24.7693 17.0882 26 15.4375 26H3.25C1.45507 26 0 24.5449 0 22.75V13C0 11.2051 1.45507 9.75 3.25 9.75H4.875H14.625Z" fill="#333333"/>
</svg>
