<svg width="68" height="68" viewBox="0 0 68 68" fill="none" xmlns="http://www.w3.org/2000/svg">
<g filter="url(#filter0_d_749_415)">
<rect x="10" y="15" width="42" height="34" fill="white"/>
<path d="M60 30C60 46.5685 46.5685 60 30 60C13.4315 60 0 46.5685 0 30C0 13.4315 13.4315 0 30 0C46.5685 0 60 13.4315 60 30ZM31.0752 22.1475C28.1573 23.3611 22.3255 25.8731 13.5799 29.6834C12.1597 30.2482 11.4158 30.8007 11.3481 31.3409C11.2336 32.2539 12.3769 32.6134 13.9338 33.1029C14.1456 33.1695 14.365 33.2385 14.59 33.3116C16.1217 33.8095 18.1822 34.392 19.2534 34.4152C20.225 34.4362 21.3095 34.0356 22.5068 33.2135C30.678 27.6976 34.8961 24.9097 35.1609 24.8496C35.3478 24.8071 35.6066 24.7538 35.7821 24.9097C35.9575 25.0657 35.9402 25.3609 35.9217 25.4401C35.8084 25.923 31.3205 30.0953 28.998 32.2546C28.2739 32.9277 27.7603 33.4052 27.6553 33.5142C27.4202 33.7585 27.1805 33.9895 26.9501 34.2116C25.5271 35.5834 24.4599 36.6122 27.0092 38.2921C28.2343 39.0994 29.2146 39.7669 30.1925 40.433C31.2606 41.1603 32.3259 41.8857 33.7042 42.7892C34.0553 43.0194 34.3907 43.2585 34.7174 43.4914C35.9603 44.3775 37.077 45.1736 38.4566 45.0467C39.2583 44.9729 40.0863 44.2191 40.5068 41.971C41.5007 36.658 43.4542 25.1463 43.9057 20.4026C43.9452 19.987 43.8955 19.4551 43.8555 19.2216C43.8156 18.9881 43.7321 18.6554 43.4286 18.4092C43.0691 18.1175 42.5142 18.056 42.2661 18.0604C41.1377 18.0802 39.4065 18.6822 31.0752 22.1475Z" fill="#1F1F1F"/>
</g>
<defs>
<filter id="filter0_d_749_415" x="0" y="0" width="68" height="68" filterUnits="userSpaceOnUse" color-interpolation-filters="sRGB">
<feFlood flood-opacity="0" result="BackgroundImageFix"/>
<feColorMatrix in="SourceAlpha" type="matrix" values="0 0 0 0 0 0 0 0 0 0 0 0 0 0 0 0 0 0 127 0" result="hardAlpha"/>
<feOffset dx="4" dy="4"/>
<feGaussianBlur stdDeviation="2"/>
<feComposite in2="hardAlpha" operator="out"/>
<feColorMatrix type="matrix" values="0 0 0 0 0 0 0 0 0 0 0 0 0 0 0 0 0 0 0.25 0"/>
<feBlend mode="normal" in2="BackgroundImageFix" result="effect1_dropShadow_749_415"/>
<feBlend mode="normal" in="SourceGraphic" in2="effect1_dropShadow_749_415" result="shape"/>
</filter>
</defs>
</svg>
