<svg width="60" height="60" viewBox="0 0 68 68" fill="none" xmlns="http://www.w3.org/2000/svg">
<g filter="url(#filter0_d_749_419)">
<rect x="15" y="15" width="30" height="27" fill="white"/>
<path d="M30.1918 7.49512C30.2132 7.49516 30.2362 7.49522 30.2608 7.49528L30.5263 7.4961C33.608 7.50743 49.2272 7.62064 53.4385 8.7528C56.02 9.44522 58.0529 11.4858 58.7429 14.0761C59.1227 15.4992 59.3875 17.3907 59.572 19.336L59.6078 19.7256C59.6368 20.0508 59.6637 20.3766 59.6885 20.7012L59.7173 21.0901C59.9638 24.518 59.9926 27.7258 59.9959 28.4276L59.9963 28.5223C59.9963 28.53 59.9963 28.5427 59.9963 28.5427V28.5959C59.9963 28.5959 59.9963 28.6085 59.9963 28.6163L59.9959 28.711C59.9925 29.4393 59.9616 32.8664 59.6885 36.4375L59.6577 36.8276L59.625 37.218C59.4393 39.3651 59.1607 41.4973 58.7429 43.0625C58.0529 45.6528 56.02 47.6938 53.4385 48.3858C49.0868 49.5561 32.5541 49.638 30.2608 49.6438L30.0842 49.6441C30.0698 49.6442 30.057 49.6442 30.0461 49.6442L29.974 49.6442C29.974 49.6442 29.9575 49.6442 29.9465 49.6442L29.7317 49.6438C28.5728 49.6409 23.7771 49.6185 18.7549 49.4461L18.1128 49.4232C18.0056 49.4193 17.8984 49.4152 17.7913 49.4112L17.1484 49.3858L16.5071 49.3586C12.3464 49.1759 8.37946 48.8766 6.55459 48.3858C3.97301 47.6938 1.94014 45.6528 1.25017 43.0625C0.832174 41.4973 0.553508 39.3651 0.367731 37.218L0.334966 36.8276L0.304187 36.4375C0.0408875 32.9963 0.00266668 29.6887 -0.00288151 28.801L-0.0035445 28.6739C-0.00359103 28.6625 -0.0036298 28.6519 -0.00366211 28.6423V28.4962C-0.0036298 28.4866 -0.00359103 28.4761 -0.0035445 28.4646L-0.00288151 28.3376C0.00214327 27.5336 0.0339669 24.745 0.235516 21.6697L0.261604 21.2839C0.266103 21.2194 0.270678 21.1548 0.275331 21.0901L0.304187 20.7012C0.329027 20.3766 0.355869 20.0508 0.384877 19.7256L0.420735 19.336C0.605326 17.3907 0.870174 15.4992 1.25017 14.0761C1.94014 11.4858 3.97301 9.44522 6.55459 8.7528C8.37946 8.2622 12.3464 7.96293 16.5071 7.78038L17.1484 7.7532L17.7913 7.72781C17.8984 7.72372 18.0056 7.71971 18.1128 7.71576L18.7549 7.69293C23.4566 7.53153 27.9597 7.50164 29.4662 7.4961L29.7317 7.49528C29.7564 7.49522 29.7794 7.49516 29.8007 7.49512H30.1918ZM23.9965 19.5371V37.6015L39.5842 28.5698L23.9965 19.5371Z" fill="#1F1F1F"/>
</g>
<defs>
<filter id="filter0_d_749_419" x="-0.00366211" y="0" width="68.0037" height="68" filterUnits="userSpaceOnUse" color-interpolation-filters="sRGB">
<feFlood flood-opacity="0" result="BackgroundImageFix"/>
<feColorMatrix in="SourceAlpha" type="matrix" values="0 0 0 0 0 0 0 0 0 0 0 0 0 0 0 0 0 0 127 0" result="hardAlpha"/>
<feOffset dx="4" dy="4"/>
<feGaussianBlur stdDeviation="2"/>
<feComposite in2="hardAlpha" operator="out"/>
<feColorMatrix type="matrix" values="0 0 0 0 0 0 0 0 0 0 0 0 0 0 0 0 0 0 0.25 0"/>
<feBlend mode="normal" in2="BackgroundImageFix" result="effect1_dropShadow_749_419"/>
<feBlend mode="normal" in="SourceGraphic" in2="effect1_dropShadow_749_419" result="shape"/>
</filter>
</defs>
</svg>
